<?xml version="1.0" encoding="utf-8"?>
<!-- Generator: Adobe Illustrator 19.2.1, SVG Export Plug-In . SVG Version: 6.00 Build 0)  -->
<svg version="1.1" id="layer" xmlns="http://www.w3.org/2000/svg" xmlns:xlink="http://www.w3.org/1999/xlink" x="0px" y="0px"
	 viewBox="0 0 652 652" style="enable-background:new 0 0 652 652;" xml:space="preserve">
<style type="text/css">
	.st0{fill:#FFDE64;}
	.st1{fill:#FFFFFF;}
	.st2{fill:#F47F20;}
</style>
<path id="path-1_1_" class="st0" d="M55.7,246.9H153c16.3,0,29.5,13.2,29.5,29.5v97.3c0,16.3-13.2,29.5-29.5,29.5H55.7
	c-16.3,0-29.5-13.2-29.5-29.5v-97.3C26.2,260.1,39.4,246.9,55.7,246.9z"/>
<polygon id="Rectangle-1" class="st1" points="89.2,313.6 124.6,313.6 124.6,395 89.2,395 "/>
<path id="Combined-shape-5" d="M138.8,297.5c3,13.3-8.4,50.5-2.9,105.6H78l0,0c0-0.9-0.3-24.8,0-34.5C75.5,338,49.8,329,53.9,313.3
	c4-14.6,19.3,0.3,27,1c5.4-5.3,4.6-40.5,32.8-40.5C131.3,273.6,138.4,291.8,138.8,297.5z M109,320.1c-8.4-0.6-16.5,14.5-18.2,33.7
	c-1.7,19.2,3.7,35.2,12.1,35.8c8.4,0.6,16.5-14.5,18.2-33.7C122.8,336.7,117.4,320.7,109,320.1z"/>
<path class="st1" d="M106.9,287.4c1.9,0,3.4,1.6,3.4,3.5c0,1.9-1.5,3.5-3.4,3.5c-1.9,0-3.4-1.6-3.4-3.5
	C103.5,289,105.1,287.4,106.9,287.4z M125.3,291.4c1.9,0,3.4,1.6,3.4,3.5c0,1.9-1.5,3.5-3.4,3.5c-1.9,0-3.4-1.6-3.4-3.5
	C121.9,293,123.4,291.4,125.3,291.4z"/>
<path class="st2" d="M103.2,302.7c0,0.8,7.4,6.1,8.8,6.4c1.4,0.3,11.4-0.8,11.4-1.6c0-0.5-5.9-7-8.8-7.5
	C111.9,299.5,103.2,301.9,103.2,302.7z M112.1,403.1c-0.8-1.8,8.9-15.6,17.6,0H112.1z M83.4,403.1c-0.9-2,9.4-15.6,17.6,0H83.4z"/>
<path id="sendwave" d="M221.8,365.1c5.7,0,10.1-1.3,13.5-3.8s5-6.1,5-10.6c0-3.3-1-6.1-2.9-8.4s-4.7-3.9-8.2-4.9l0,0l-9.8-2.7
	c-2.5-0.7-4.3-1.6-5.3-2.6c-1.1-1.1-1.6-2.4-1.6-4c0-1.9,0.8-3.5,2.4-4.6c1.6-1.1,3.7-1.7,6.2-1.7c3.1,0,5.5,0.7,7.2,2
	c1.7,1.3,2.6,3.2,2.6,5.4l0,0h8.8c0-4.5-1.6-8-4.9-10.6c-3.3-2.6-7.7-3.8-13.4-3.8c-5.2,0-9.4,1.3-12.8,3.8c-3.3,2.6-5,5.8-5,9.8
	c0,3.3,0.9,6.1,2.7,8.3c1.8,2.2,4.5,3.8,8,4.8l0,0l9.7,2.5c2.7,0.7,4.6,1.6,5.6,2.6c1,1.1,1.6,2.5,1.6,4.2c0,2.1-0.8,3.7-2.4,5
	c-1.6,1.2-3.7,1.9-6.4,1.9c-3.4,0-6.2-0.8-8.3-2.3c-2.1-1.6-3.1-3.5-3.1-6l0,0h-8.9c0,2.9,0.8,5.5,2.5,7.9c1.7,2.4,4,4.2,7,5.6
	C214.6,364.4,218,365.1,221.8,365.1z M268.8,365.1c5.6,0,10.4-1.4,14.4-4.1c4-2.8,6.4-6.3,7.2-10.8l0,0h-9c-1,2.3-2.5,4-4.7,5.2
	c-2.1,1.2-4.8,1.8-8,1.8c-4.6,0-8.2-1.3-10.9-3.9c-2.7-2.6-4.1-6.2-4.1-10.7l0,0h36.9c0.1-1.4,0.2-3.2,0.2-5.3
	c0-4.3-0.9-8.2-2.8-11.6c-1.9-3.4-4.6-6.1-8-8c-3.4-1.9-7.3-2.8-11.7-2.8c-4.7,0-8.8,1-12.4,3.1c-3.6,2.1-6.3,5-8.2,8.8
	c-1.9,3.8-2.9,8.2-2.9,13.1c0,7.7,2.2,13.9,6.5,18.4C255.6,362.8,261.4,365.1,268.8,365.1z M282.1,335.7h-28.4
	c0.2-4.1,1.6-7.3,4.2-9.8c2.6-2.5,6-3.7,10.3-3.7c4.3,0,7.7,1.2,10.2,3.6C280.9,328.2,282.1,331.5,282.1,335.7L282.1,335.7z
	 M307.9,363.9v-25.3c0-4.9,1.2-8.8,3.5-11.6c2.3-2.9,5.6-4.3,10-4.3c4.2,0,7.3,1.3,9.2,3.8c1.9,2.6,2.8,6.5,2.8,11.9l0,0v25.5h8.9
	v-29.4c0-6.4-1.5-11.3-4.5-14.6c-3-3.3-7.4-5-13.2-5c-4.1,0-7.5,0.9-10.4,2.7s-5,4.2-6.3,7.3l0,0v-8.8h-9v47.7H307.9z M373.3,365.1
	c3.6,0,6.9-0.9,10-2.6c3.1-1.8,5.4-4.1,6.9-7l0,0v8.4h8.9v-72.4h-8.9v33.2c-1.5-3-3.8-5.3-6.7-7.1c-3-1.8-6.3-2.6-10-2.6
	c-4.8,0-9,1.1-12.6,3.3c-3.6,2.2-6.3,5.2-8.3,9.1c-1.9,3.8-2.9,8.1-2.9,12.8c0,4.8,0.9,9,2.7,12.8s4.5,6.8,8.1,9
	C364.2,364,368.5,365.1,373.3,365.1z M374.6,357c-4.8,0-8.7-1.6-11.6-4.8c-2.9-3.2-4.3-7.2-4.3-12.2s1.4-9.1,4.3-12.3
	c2.9-3.2,6.8-4.8,11.6-4.8c5,0,9,1.6,11.9,4.9c2.9,3.3,4.3,7.3,4.3,12.2c0,4.8-1.4,8.9-4.3,12.1C383.6,355.4,379.6,357,374.6,357z
	 M429.3,363.9l12.5-36.6l12.5,36.6h7.7l17.6-47.7h-9.8L458.2,351l-11.6-34.9H437L425.3,351L414,316.1h-9.8l17.6,47.7H429.3z
	 M502.1,365.1c3.6,0,6.9-0.9,10-2.6c3.1-1.8,5.4-4.1,6.9-7l0,0v8.4h8.9v-47.7H519v8.5c-1.5-3-3.8-5.3-6.7-7.1c-3-1.8-6.3-2.6-10-2.6
	c-4.8,0-9,1.1-12.6,3.3c-3.6,2.2-6.3,5.2-8.3,9.1c-1.9,3.8-2.9,8.1-2.9,12.8c0,4.8,0.9,9,2.7,12.8s4.5,6.8,8.1,9
	C492.9,364,497.2,365.1,502.1,365.1z M503.3,357c-4.8,0-8.7-1.6-11.6-4.8c-2.9-3.2-4.3-7.2-4.3-12.2s1.4-9.1,4.3-12.3
	c2.9-3.2,6.8-4.8,11.6-4.8c5,0,9,1.6,11.9,4.9c2.9,3.3,4.3,7.3,4.3,12.2c0,4.8-1.4,8.9-4.3,12.1C512.3,355.4,508.3,357,503.3,357z
	 M560.7,363.9l21-47.7h-9.6l-15.1,35.7l-15-35.7h-9.6l21,47.7H560.7z M604.1,365.1c5.6,0,10.4-1.4,14.4-4.1c4-2.8,6.4-6.3,7.2-10.8
	l0,0h-9c-1,2.3-2.5,4-4.7,5.2c-2.1,1.2-4.8,1.8-8,1.8c-4.6,0-8.2-1.3-10.9-3.9c-2.7-2.6-4.1-6.2-4.1-10.7l0,0H626
	c0.1-1.4,0.2-3.2,0.2-5.3c0-4.3-0.9-8.2-2.8-11.6c-1.9-3.4-4.6-6.1-8-8c-3.4-1.9-7.3-2.8-11.7-2.8c-4.7,0-8.8,1-12.4,3.1
	c-3.6,2.1-6.3,5-8.2,8.8c-1.9,3.8-2.9,8.2-2.9,13.1c0,7.7,2.2,13.9,6.5,18.4C590.9,362.8,596.7,365.1,604.1,365.1z M617.4,335.7
	h-28.4c0.2-4.1,1.6-7.3,4.2-9.8c2.6-2.5,6-3.7,10.3-3.7c4.3,0,7.7,1.2,10.2,3.6C616.2,328.2,617.4,331.5,617.4,335.7L617.4,335.7z"
	/>
</svg>
